<svg width="130" height="52" viewBox="0 0 130 52" fill="none" xmlns="http://www.w3.org/2000/svg">
<path d="M62.2783 6.46807C62.2783 5.87199 62.4732 5.37908 62.8744 4.98934C63.2756 4.59959 63.8258 4.40472 64.5136 4.40472C65.1899 4.40472 65.7402 4.59959 66.1414 4.98934C66.5426 5.37908 66.7489 5.87199 66.7489 6.46807C66.7489 7.07561 66.5426 7.56852 66.1299 7.95826C65.7172 8.348 65.1785 8.54287 64.5021 8.54287C63.8258 8.54287 63.2871 8.348 62.8744 7.95826C62.4847 7.57998 62.2783 7.07561 62.2783 6.46807ZM66.5196 25.2789H62.519V10.3311H66.5196V25.2789Z" fill="white"/>
<path d="M68.8008 17.7019C68.8008 15.4093 69.351 13.5637 70.44 12.1652C71.529 10.7667 72.9962 10.0675 74.8533 10.0675C76.4925 10.0675 77.7649 10.6292 78.6819 11.7526L78.8424 10.3426H82.4647V24.786C82.4647 26.0928 82.1667 27.2276 81.5706 28.202C80.9745 29.1649 80.1377 29.91 79.0602 30.4144C77.9827 30.9187 76.7217 31.1709 75.2774 31.1709C74.1769 31.1709 73.1109 30.9531 72.0792 30.5175C71.0361 30.0819 70.2566 29.5203 69.7178 28.821L71.4831 26.3908C72.4804 27.5028 73.684 28.0645 75.1054 28.0645C76.16 28.0645 76.9854 27.7779 77.5815 27.2162C78.1661 26.6545 78.4641 25.8521 78.4641 24.809V24.0065C77.5471 25.0497 76.332 25.5655 74.8303 25.5655C73.0306 25.5655 71.5863 24.8663 70.4744 23.4563C69.3625 22.0578 68.8122 20.1894 68.8122 17.8738V17.7019H68.8008ZM72.7899 17.9885C72.7899 19.3411 73.065 20.4071 73.6038 21.1752C74.1426 21.9432 74.8876 22.3329 75.8391 22.3329C77.0542 22.3329 77.9253 21.8744 78.4526 20.9688V14.6756C77.9139 13.7586 77.0542 13.3115 75.8735 13.3115C74.9106 13.3115 74.1655 13.7013 73.6152 14.4922C73.065 15.2603 72.7899 16.4409 72.7899 17.9885Z" fill="white"/>
<path d="M88.7692 10.3312L88.8953 12.0621C89.9613 10.7324 91.3942 10.0561 93.1939 10.0561C94.7758 10.0561 95.9565 10.5261 96.7245 11.4546C97.4925 12.3831 97.8937 13.7701 97.9167 15.6271V25.279H93.9275V15.7188C93.9275 14.8706 93.7441 14.263 93.3773 13.8733C93.0105 13.495 92.3915 13.3001 91.5432 13.3001C90.4198 13.3001 89.583 13.7816 89.0214 14.733V25.2675H85.0322V10.3312H88.7692Z" fill="white"/>
<path d="M100.484 6.46807C100.484 5.87199 100.679 5.37908 101.08 4.98934C101.482 4.59959 102.032 4.40472 102.72 4.40472C103.396 4.40472 103.946 4.59959 104.347 4.98934C104.749 5.37908 104.955 5.87199 104.955 6.46807C104.955 7.07561 104.749 7.56852 104.336 7.95826C103.923 8.348 103.385 8.54287 102.708 8.54287C102.032 8.54287 101.493 8.348 101.08 7.95826C100.691 7.57998 100.484 7.07561 100.484 6.46807ZM104.726 25.2789H100.725V10.3311H104.726V25.2789Z" fill="white"/>
<path d="M112.372 6.66296V10.3311H114.928V13.2542H112.372V20.7166C112.372 21.2668 112.475 21.6681 112.693 21.9088C112.899 22.1495 113.312 22.2641 113.908 22.2641C114.355 22.2641 114.745 22.2297 115.077 22.1724V25.1987C114.298 25.4394 113.484 25.554 112.659 25.554C109.862 25.554 108.429 24.1441 108.383 21.3127V13.2657H106.205V10.3426H108.383V6.67443H112.372V6.66296Z" fill="white"/>
<path d="M123.594 25.554C121.405 25.554 119.617 24.8777 118.241 23.5365C116.866 22.1954 116.178 20.4071 116.178 18.1604V17.7706C116.178 16.269 116.464 14.9278 117.049 13.7471C117.634 12.5664 118.447 11.6494 119.513 11.0075C120.58 10.3655 121.795 10.0446 123.147 10.0446C125.188 10.0446 126.804 10.6865 127.973 11.9818C129.142 13.2657 129.738 15.0998 129.738 17.4611V19.0889H120.224C120.35 20.0632 120.74 20.8427 121.393 21.4388C122.047 22.0234 122.861 22.3214 123.858 22.3214C125.394 22.3214 126.598 21.7598 127.457 20.6478L129.418 22.8488C128.821 23.697 128.008 24.3619 126.987 24.8319C125.979 25.3133 124.844 25.554 123.594 25.554ZM123.147 13.2771C122.356 13.2771 121.714 13.5408 121.221 14.0795C120.729 14.6183 120.419 15.3863 120.27 16.3836H125.818V16.0626C125.795 15.18 125.566 14.4922 125.096 13.9993C124.637 13.5179 123.984 13.2771 123.147 13.2771Z" fill="white"/>
<path opacity="0.5" d="M52.0152 0.35129L39.2855 47.8829C39.2207 48.0986 38.9618 48.1634 38.8108 48.0123L30.2884 39.4899L36.6748 15.6701C36.7395 15.4544 36.5453 15.2602 36.3296 15.3249L12.5099 21.7114L4.03055 13.2321C3.87952 13.081 3.94425 12.8221 4.16001 12.7574L51.67 0.00607603C51.8858 -0.0370757 52.0799 0.157107 52.0152 0.35129Z" fill="#00B37E"/>
<path opacity="0.5" d="M30.2885 39.49L27.009 51.7882C26.9442 52.004 26.6853 52.0687 26.5343 51.9177L0.0823113 25.4873C-0.0687196 25.3362 -0.00399244 25.0773 0.211766 25.0126L12.51 21.7115L30.2885 39.49Z" fill="#00B37E"/>
<path d="M36.6747 15.6699L30.2883 39.4897L12.5098 21.7112L36.3295 15.3247C36.5452 15.26 36.7394 15.4542 36.6747 15.6699Z" fill="#00B37E"/>
<path d="M67.6217 45.6314C67.6217 45.4246 67.5757 45.2334 67.4836 45.0576C67.3966 44.8767 67.215 44.7139 66.9387 44.5691C66.6675 44.4192 66.2582 44.29 65.7107 44.1814C65.2502 44.0832 64.8332 43.9669 64.4597 43.8325C64.0913 43.6981 63.7767 43.5353 63.5157 43.344C63.2599 43.1527 63.0629 42.9279 62.9248 42.6694C62.7866 42.411 62.7176 42.1086 62.7176 41.7622C62.7176 41.4314 62.7892 41.1187 62.9325 40.824C63.0808 40.5294 63.2881 40.2683 63.5541 40.0409C63.8253 39.8134 64.1502 39.6351 64.5288 39.5059C64.9074 39.3766 65.3295 39.312 65.7951 39.312C66.4603 39.312 67.0282 39.4309 67.4989 39.6687C67.9697 39.9065 68.3304 40.2244 68.5811 40.6224C68.8318 41.0153 68.9571 41.4521 68.9571 41.9328H67.5373C67.5373 41.7002 67.4682 41.4753 67.3301 41.2582C67.1971 41.0359 67.0001 40.8524 66.7391 40.7077C66.4833 40.563 66.1686 40.4906 65.7951 40.4906C65.4012 40.4906 65.0814 40.5526 64.8358 40.6767C64.5953 40.7956 64.4188 40.9481 64.3062 41.1342C64.1988 41.3203 64.1451 41.5167 64.1451 41.7235C64.1451 41.8785 64.1706 42.0181 64.2218 42.1422C64.2781 42.2611 64.3753 42.3722 64.5135 42.4756C64.6516 42.5738 64.846 42.6668 65.0967 42.7547C65.3474 42.8426 65.6672 42.9305 66.0561 43.0183C66.7366 43.1734 67.2968 43.3595 67.7369 43.5766C68.1769 43.7937 68.5043 44.0599 68.7192 44.3753C68.9341 44.6906 69.0416 45.0731 69.0416 45.5228C69.0416 45.8898 68.9648 46.2258 68.8113 46.5308C68.6629 46.8358 68.4455 47.0994 68.159 47.3217C67.8776 47.5388 67.5399 47.7094 67.1459 47.8335C66.757 47.9524 66.3196 48.0118 65.8335 48.0118C65.1019 48.0118 64.4828 47.88 63.9762 47.6164C63.4697 47.3527 63.0859 47.0116 62.825 46.5929C62.5641 46.1742 62.4336 45.7322 62.4336 45.267H63.8611C63.8816 45.6598 63.9941 45.9726 64.1988 46.2052C64.4034 46.4326 64.6542 46.5954 64.9509 46.6937C65.2477 46.7867 65.5419 46.8332 65.8335 46.8332C66.2224 46.8332 66.5473 46.7815 66.8082 46.6782C67.0743 46.5748 67.2764 46.4326 67.4145 46.2517C67.5527 46.0708 67.6217 45.864 67.6217 45.6314Z" fill="white"/>
<path d="M72.3264 35.9468V47.8567H70.9065V35.9468H72.3264ZM71.9887 43.344L71.3977 43.3207C71.4028 42.747 71.4873 42.2171 71.651 41.7312C71.8147 41.2401 72.045 40.8137 72.3417 40.4518C72.6385 40.09 72.9915 39.8108 73.4008 39.6144C73.8153 39.4128 74.2732 39.312 74.7746 39.312C75.1839 39.312 75.5523 39.3689 75.8798 39.4826C76.2072 39.5911 76.4861 39.7669 76.7163 40.0099C76.9517 40.2528 77.1308 40.5681 77.2536 40.9558C77.3763 41.3383 77.4377 41.8062 77.4377 42.3593V47.8567H76.0102V42.3438C76.0102 41.9044 75.9463 41.5529 75.8184 41.2892C75.6905 41.0204 75.5037 40.8266 75.2581 40.7077C75.0125 40.5836 74.7106 40.5216 74.3525 40.5216C73.9995 40.5216 73.6771 40.5966 73.3855 40.7465C73.099 40.8964 72.8508 41.1031 72.641 41.3668C72.4364 41.6304 72.2752 41.9328 72.1575 42.274C72.0449 42.61 71.9887 42.9667 71.9887 43.344Z" fill="white"/>
<path d="M79.1876 43.755V43.5766C79.1876 42.9718 79.2746 42.411 79.4485 41.894C79.6225 41.3719 79.8732 40.9196 80.2007 40.5371C80.5281 40.1494 80.9246 39.8496 81.3902 39.6377C81.8559 39.4206 82.3777 39.312 82.9559 39.312C83.5392 39.312 84.0636 39.4206 84.5292 39.6377C84.9999 39.8496 85.399 40.1494 85.7265 40.5371C86.0591 40.9196 86.3123 41.3719 86.4863 41.894C86.6602 42.411 86.7472 42.9718 86.7472 43.5766V43.755C86.7472 44.3598 86.6602 44.9206 86.4863 45.4375C86.3123 45.9545 86.0591 46.4068 85.7265 46.7945C85.399 47.177 85.0025 47.4768 84.5369 47.6939C84.0764 47.9058 83.5545 48.0118 82.9712 48.0118C82.388 48.0118 81.8635 47.9058 81.3979 47.6939C80.9323 47.4768 80.5332 47.177 80.2007 46.7945C79.8732 46.4068 79.6225 45.9545 79.4485 45.4375C79.2746 44.9206 79.1876 44.3598 79.1876 43.755ZM80.6074 43.5766V43.755C80.6074 44.1737 80.656 44.5691 80.7532 44.9413C80.8505 45.3083 80.9963 45.634 81.1907 45.9183C81.3902 46.2026 81.6384 46.4274 81.9352 46.5929C82.2319 46.7531 82.5773 46.8332 82.9712 46.8332C83.3601 46.8332 83.7004 46.7531 83.992 46.5929C84.2887 46.4274 84.5343 46.2026 84.7288 45.9183C84.9232 45.634 85.069 45.3083 85.1662 44.9413C85.2686 44.5691 85.3197 44.1737 85.3197 43.755V43.5766C85.3197 43.1631 85.2686 42.7728 85.1662 42.4058C85.069 42.0336 84.9206 41.7054 84.7211 41.4211C84.5267 41.1316 84.2811 40.9041 83.9843 40.7387C83.6927 40.5733 83.3499 40.4906 82.9559 40.4906C82.567 40.4906 82.2242 40.5733 81.9275 40.7387C81.6358 40.9041 81.3902 41.1316 81.1907 41.4211C80.9963 41.7054 80.8505 42.0336 80.7532 42.4058C80.656 42.7728 80.6074 43.1631 80.6074 43.5766Z" fill="white"/>
<path d="M89.9476 41.0799V51.0823H88.5201V39.4671H89.8248L89.9476 41.0799ZM95.5425 43.5921V43.755C95.5425 44.3649 95.4709 44.931 95.3276 45.453C95.1843 45.97 94.9746 46.4197 94.6983 46.8022C94.4271 47.1847 94.092 47.482 93.6929 47.6939C93.2938 47.9058 92.8359 48.0118 92.3191 48.0118C91.7921 48.0118 91.3265 47.9239 90.9223 47.7482C90.5181 47.5724 90.1753 47.3166 89.8939 46.9806C89.6125 46.6446 89.3873 46.2414 89.2185 45.771C89.0548 45.3006 88.9422 44.7707 88.8808 44.1814V43.313C88.9422 42.6927 89.0573 42.137 89.2262 41.6459C89.395 41.1548 89.6176 40.7361 89.8939 40.3898C90.1753 40.0383 90.5155 39.7721 90.9146 39.5911C91.3137 39.4051 91.7742 39.312 92.2961 39.312C92.818 39.312 93.281 39.4154 93.6852 39.6222C94.0894 39.8238 94.4297 40.1132 94.706 40.4906C94.9822 40.8679 95.1895 41.3203 95.3276 41.8475C95.4709 42.3696 95.5425 42.9511 95.5425 43.5921ZM94.115 43.755V43.5921C94.115 43.1734 94.0715 42.7806 93.9845 42.4135C93.8975 42.0414 93.762 41.7157 93.5778 41.4366C93.3987 41.1523 93.1684 40.93 92.887 40.7697C92.6056 40.6043 92.2705 40.5216 91.8816 40.5216C91.5235 40.5216 91.2114 40.5836 90.9453 40.7077C90.6844 40.8318 90.4618 40.9998 90.2776 41.2117C90.0934 41.4185 89.9425 41.6563 89.8248 41.9251C89.7122 42.1887 89.6278 42.4627 89.5715 42.747V44.7552C89.6739 45.117 89.8171 45.4582 90.0013 45.7787C90.1855 46.094 90.4311 46.3499 90.7381 46.5463C91.0451 46.7376 91.4314 46.8332 91.897 46.8332C92.2807 46.8332 92.6107 46.7531 92.887 46.5929C93.1684 46.4274 93.3987 46.2026 93.5778 45.9183C93.762 45.634 93.8975 45.3083 93.9845 44.9413C94.0715 44.5691 94.115 44.1737 94.115 43.755Z" fill="white"/>
</svg>
